{"accessors":[{"bufferView":0,"byteOffset":0,"componentType":5126,"count":1224,"max":[998.7340316205405,958.4365281173936,10627.947139217726],"min":[10.5917391304217,29.3411735941662,10179.208127341633],"type":"VEC3"},{"bufferView":1,"byteOffset":0,"componentType":5126,"count":1224,"normalized":false,"type":"VEC2"},{"bufferView":2,"byteOffset":0,"componentType":5125,"count":6228,"type":"SCALAR"}],"asset":{"generator":"VTK","version":"2.0"},"bufferViews":[{"buffer":0,"byteLength":14688,"byteOffset":0,"target":34962},{"buffer":1,"byteLength":9792,"byteOffset":0,"target":34962},{"buffer":2,"byteLength":24912,"byteOffset":0,"target":34963},{"buffer":3,"byteLength":271,"byteOffset":0,"target":34962}],"buffers":[{"byteLength":14688,"uri":"data:application/octet-stream;base64,"},{"byteLength":9792,"uri":"data:application/octet-stream;base64,"},{"byteLength":24912,"uri":"data:application/octet-stream;base64,"},{"byteLength":271,"uri":"data:application/octet-stream;base64,"}],"cameras":[{"perspective":{"aspectRatio":1.3333333333333333,"yfov":0.5235987755982988,"zfar":4512.229425796755,"znear":1373.1526051487226},"type":"perspective"}],"images":[{"bufferView":3,"mimeType":"image/png"}],"materials":[{"pbrMetallicRoughness":{"baseColorFactor":[0.6784313725490196,0.8470588235294118,0.9019607843137255,1.0],"baseColorTexture":{"index":0,"texCoord":0},"metallicFactor":0.0,"roughnessFactor":1.0}}],"meshes":[{"name":"mesh0","primitives":[{"attributes":{"POSITION":0,"TEXCOORD_0":1},"indices":2,"material":0,"mode":4}]}],"nodes":[{"matrix":[0.0,0.0,1.0000000000000004,0.0,1.0000000000000004,0.0,0.0,0.0,0.0,1.0000000000000004,0.0,0.0,0.0,0.0,0.0,1.0],"mesh":0,"name":"mesh0"},{"camera":0,"matrix":[-0.7071067811865476,0.7071067811865476,0.0,-0.0,-0.40824829046386313,-0.40824829046386313,0.8164965809277259,0.0,0.5773502691896256,0.5773502691896256,0.5773502691896258,-0.0,2098.102903644216,2087.328869124515,11997.017651548415,1.0],"name":"Camera Node"},{"children":[0,1],"name":"Renderer Node"}],"samplers":[{"magFilter":9728,"minFilter":9728,"wrapS":33071,"wrapT":33071}],"scene":0,"scenes":[{"name":"Layer 0","nodes":[2]}],"textures":[{"sampler":0,"source":0}]}